<mxfile host="app.diagrams.net" agent="Mozilla/5.0 (Windows NT 10.0; Win64; x64) AppleWebKit/537.36 (KHTML, like Gecko) Chrome/141.0.0.0 Safari/537.36" version="28.2.8">
  <diagram name="Page-1" id="TGo61gCRK2V74XQc2gA1">
    <mxGraphModel dx="1580" dy="920" grid="1" gridSize="10" guides="1" tooltips="1" connect="1" arrows="1" fold="1" page="1" pageScale="1" pageWidth="827" pageHeight="1169" math="0" shadow="0">
      <root>
        <mxCell id="0" />
        <mxCell id="1" parent="0" />
        <mxCell id="C4tHGR8kcUQV5d1W9FfS-1" value="+" style="rounded=0;whiteSpace=wrap;html=1;" parent="1" vertex="1">
          <mxGeometry x="610" y="367.5" width="50" height="90" as="geometry" />
        </mxCell>
        <mxCell id="C4tHGR8kcUQV5d1W9FfS-2" value="" style="group;rotation=-90;" parent="1" vertex="1" connectable="0">
          <mxGeometry x="1020" y="412.5" width="90" height="70" as="geometry" />
        </mxCell>
        <mxCell id="C4tHGR8kcUQV5d1W9FfS-3" value="" style="rounded=0;whiteSpace=wrap;html=1;rotation=-90;" parent="C4tHGR8kcUQV5d1W9FfS-2" vertex="1">
          <mxGeometry y="-20" width="90" height="50" as="geometry" />
        </mxCell>
        <mxCell id="C4tHGR8kcUQV5d1W9FfS-4" value="" style="group;rotation=-90;" parent="C4tHGR8kcUQV5d1W9FfS-2" vertex="1" connectable="0">
          <mxGeometry x="30" y="-10" width="26" height="20" as="geometry" />
        </mxCell>
        <mxCell id="C4tHGR8kcUQV5d1W9FfS-5" value="" style="endArrow=none;html=1;rounded=0;" parent="C4tHGR8kcUQV5d1W9FfS-4" edge="1">
          <mxGeometry width="50" height="50" relative="1" as="geometry">
            <mxPoint x="13" y="23" as="sourcePoint" />
            <mxPoint x="13" y="-3" as="targetPoint" />
          </mxGeometry>
        </mxCell>
        <mxCell id="C4tHGR8kcUQV5d1W9FfS-6" value="" style="endArrow=none;html=1;rounded=0;" parent="C4tHGR8kcUQV5d1W9FfS-4" edge="1">
          <mxGeometry width="50" height="50" relative="1" as="geometry">
            <mxPoint x="13" y="23" as="sourcePoint" />
            <mxPoint x="3" y="23" as="targetPoint" />
          </mxGeometry>
        </mxCell>
        <mxCell id="C4tHGR8kcUQV5d1W9FfS-7" value="" style="endArrow=none;html=1;rounded=0;" parent="C4tHGR8kcUQV5d1W9FfS-4" edge="1">
          <mxGeometry width="50" height="50" relative="1" as="geometry">
            <mxPoint x="23" y="-3" as="sourcePoint" />
            <mxPoint x="13" y="-3" as="targetPoint" />
          </mxGeometry>
        </mxCell>
        <mxCell id="C4tHGR8kcUQV5d1W9FfS-8" value="" style="endArrow=none;html=1;rounded=0;" parent="C4tHGR8kcUQV5d1W9FfS-4" edge="1">
          <mxGeometry width="50" height="50" relative="1" as="geometry">
            <mxPoint x="13" y="3" as="sourcePoint" />
            <mxPoint x="3" y="13" as="targetPoint" />
            <Array as="points">
              <mxPoint x="13" y="3" />
            </Array>
          </mxGeometry>
        </mxCell>
        <mxCell id="C4tHGR8kcUQV5d1W9FfS-9" value="" style="endArrow=none;html=1;rounded=0;" parent="C4tHGR8kcUQV5d1W9FfS-4" edge="1">
          <mxGeometry width="50" height="50" relative="1" as="geometry">
            <mxPoint x="13" y="3" as="sourcePoint" />
            <mxPoint x="23" y="13" as="targetPoint" />
          </mxGeometry>
        </mxCell>
        <mxCell id="C4tHGR8kcUQV5d1W9FfS-10" value="" style="triangle;whiteSpace=wrap;html=1;rotation=-90;" parent="C4tHGR8kcUQV5d1W9FfS-2" vertex="1">
          <mxGeometry x="37.5" y="17.5" width="15" height="50" as="geometry" />
        </mxCell>
        <mxCell id="C4tHGR8kcUQV5d1W9FfS-11" value="" style="endArrow=none;html=1;rounded=0;entryX=0.004;entryY=0.779;entryDx=0;entryDy=0;entryPerimeter=0;" parent="1" target="C4tHGR8kcUQV5d1W9FfS-1" edge="1">
          <mxGeometry width="50" height="50" relative="1" as="geometry">
            <mxPoint x="570" y="437.5" as="sourcePoint" />
            <mxPoint x="580" y="487.5" as="targetPoint" />
          </mxGeometry>
        </mxCell>
        <mxCell id="C4tHGR8kcUQV5d1W9FfS-12" value="" style="verticalLabelPosition=bottom;shadow=0;dashed=0;align=center;html=1;verticalAlign=top;shape=mxgraph.electrical.opto_electronics.7_segment_display;pointerEvents=1;" parent="1" vertex="1">
          <mxGeometry x="1380" y="315" width="30" height="40" as="geometry" />
        </mxCell>
        <mxCell id="C4tHGR8kcUQV5d1W9FfS-13" value="" style="verticalLabelPosition=bottom;shadow=0;dashed=0;align=center;html=1;verticalAlign=top;shape=mxgraph.electrical.opto_electronics.7_segment_display;pointerEvents=1;" parent="1" vertex="1">
          <mxGeometry x="1470" y="315" width="30" height="40" as="geometry" />
        </mxCell>
        <mxCell id="C4tHGR8kcUQV5d1W9FfS-14" value="" style="verticalLabelPosition=bottom;shadow=0;dashed=0;align=center;html=1;verticalAlign=top;shape=mxgraph.electrical.opto_electronics.7_segment_display;pointerEvents=1;" parent="1" vertex="1">
          <mxGeometry x="1510" y="315" width="30" height="40" as="geometry" />
        </mxCell>
        <mxCell id="C4tHGR8kcUQV5d1W9FfS-15" value="1" style="text;html=1;align=center;verticalAlign=middle;whiteSpace=wrap;rounded=0;" parent="1" vertex="1">
          <mxGeometry x="550" y="417.5" width="20" height="30" as="geometry" />
        </mxCell>
        <mxCell id="C4tHGR8kcUQV5d1W9FfS-16" value="" style="rounded=0;whiteSpace=wrap;html=1;" parent="1" vertex="1">
          <mxGeometry x="510" y="467.5" width="20" height="20" as="geometry" />
        </mxCell>
        <mxCell id="C4tHGR8kcUQV5d1W9FfS-17" value="" style="rounded=0;whiteSpace=wrap;html=1;" parent="1" vertex="1">
          <mxGeometry x="510" y="337.5" width="20" height="20" as="geometry" />
        </mxCell>
        <mxCell id="C4tHGR8kcUQV5d1W9FfS-18" value="" style="endArrow=none;html=1;rounded=0;entryX=1;entryY=0.5;entryDx=0;entryDy=0;exitX=1;exitY=0.5;exitDx=0;exitDy=0;" parent="1" source="C4tHGR8kcUQV5d1W9FfS-17" target="C4tHGR8kcUQV5d1W9FfS-3" edge="1">
          <mxGeometry width="50" height="50" relative="1" as="geometry">
            <mxPoint x="740" y="617.5" as="sourcePoint" />
            <mxPoint x="790" y="567.5" as="targetPoint" />
            <Array as="points">
              <mxPoint x="875" y="347.5" />
              <mxPoint x="1065" y="347.5" />
            </Array>
          </mxGeometry>
        </mxCell>
        <mxCell id="C4tHGR8kcUQV5d1W9FfS-19" value="" style="endArrow=none;html=1;rounded=0;" parent="1" edge="1">
          <mxGeometry width="50" height="50" relative="1" as="geometry">
            <mxPoint x="685" y="432.16999999999996" as="sourcePoint" />
            <mxPoint x="695" y="422.16999999999996" as="targetPoint" />
          </mxGeometry>
        </mxCell>
        <mxCell id="C4tHGR8kcUQV5d1W9FfS-20" value="" style="endArrow=none;html=1;rounded=0;" parent="1" edge="1">
          <mxGeometry width="50" height="50" relative="1" as="geometry">
            <mxPoint x="1130" y="407.5" as="sourcePoint" />
            <mxPoint x="1140" y="397.5" as="targetPoint" />
          </mxGeometry>
        </mxCell>
        <mxCell id="C4tHGR8kcUQV5d1W9FfS-21" value="26&amp;nbsp;&lt;div&gt;CPT&lt;/div&gt;" style="text;html=1;align=center;verticalAlign=middle;whiteSpace=wrap;rounded=0;" parent="1" vertex="1">
          <mxGeometry x="1110" y="405" width="60" height="30" as="geometry" />
        </mxCell>
        <mxCell id="C4tHGR8kcUQV5d1W9FfS-22" value="" style="rounded=0;whiteSpace=wrap;html=1;" parent="1" vertex="1">
          <mxGeometry x="1260" y="315" width="30" height="30" as="geometry" />
        </mxCell>
        <mxCell id="C4tHGR8kcUQV5d1W9FfS-23" value="" style="triangle;whiteSpace=wrap;html=1;" parent="1" vertex="1">
          <mxGeometry x="1260" y="315" width="30" height="30" as="geometry" />
        </mxCell>
        <mxCell id="C4tHGR8kcUQV5d1W9FfS-24" value="" style="endArrow=none;html=1;rounded=0;entryX=0;entryY=0.5;entryDx=0;entryDy=0;exitX=0;exitY=0.5;exitDx=0;exitDy=0;" parent="1" target="C4tHGR8kcUQV5d1W9FfS-23" edge="1">
          <mxGeometry width="50" height="50" relative="1" as="geometry">
            <mxPoint x="1260" y="580" as="sourcePoint" />
            <mxPoint x="1170" y="525" as="targetPoint" />
            <Array as="points">
              <mxPoint x="1230" y="580" />
              <mxPoint x="1230" y="330" />
            </Array>
          </mxGeometry>
        </mxCell>
        <mxCell id="C4tHGR8kcUQV5d1W9FfS-25" value="" style="endArrow=none;html=1;rounded=0;entryX=1;entryY=0.5;entryDx=0;entryDy=0;" parent="1" source="C4tHGR8kcUQV5d1W9FfS-27" target="C4tHGR8kcUQV5d1W9FfS-23" edge="1">
          <mxGeometry width="50" height="50" relative="1" as="geometry">
            <mxPoint x="1310" y="330" as="sourcePoint" />
            <mxPoint x="1410" y="505" as="targetPoint" />
          </mxGeometry>
        </mxCell>
        <mxCell id="C4tHGR8kcUQV5d1W9FfS-26" value="" style="endArrow=none;html=1;rounded=0;entryX=1;entryY=0.5;entryDx=0;entryDy=0;" parent="1" target="C4tHGR8kcUQV5d1W9FfS-27" edge="1">
          <mxGeometry width="50" height="50" relative="1" as="geometry">
            <mxPoint x="1310" y="330" as="sourcePoint" />
            <mxPoint x="1290" y="330" as="targetPoint" />
          </mxGeometry>
        </mxCell>
        <mxCell id="C4tHGR8kcUQV5d1W9FfS-27" value="" style="rounded=0;whiteSpace=wrap;html=1;" parent="1" vertex="1">
          <mxGeometry x="1320" y="325" width="10" height="10" as="geometry" />
        </mxCell>
        <mxCell id="C4tHGR8kcUQV5d1W9FfS-28" value="" style="endArrow=none;html=1;rounded=0;" parent="1" edge="1">
          <mxGeometry width="50" height="50" relative="1" as="geometry">
            <mxPoint x="1300" y="335" as="sourcePoint" />
            <mxPoint x="1310" y="325" as="targetPoint" />
          </mxGeometry>
        </mxCell>
        <mxCell id="C4tHGR8kcUQV5d1W9FfS-29" value="8" style="text;html=1;align=center;verticalAlign=middle;whiteSpace=wrap;rounded=0;" parent="1" vertex="1">
          <mxGeometry x="1300" y="335" width="10" height="10" as="geometry" />
        </mxCell>
        <mxCell id="C4tHGR8kcUQV5d1W9FfS-30" value="" style="rounded=0;whiteSpace=wrap;html=1;" parent="1" vertex="1">
          <mxGeometry x="1260" y="365" width="30" height="30" as="geometry" />
        </mxCell>
        <mxCell id="C4tHGR8kcUQV5d1W9FfS-31" value="" style="triangle;whiteSpace=wrap;html=1;" parent="1" vertex="1">
          <mxGeometry x="1260" y="365" width="30" height="30" as="geometry" />
        </mxCell>
        <mxCell id="C4tHGR8kcUQV5d1W9FfS-32" value="" style="endArrow=none;html=1;rounded=0;entryX=1;entryY=0.5;entryDx=0;entryDy=0;" parent="1" source="C4tHGR8kcUQV5d1W9FfS-34" target="C4tHGR8kcUQV5d1W9FfS-31" edge="1">
          <mxGeometry width="50" height="50" relative="1" as="geometry">
            <mxPoint x="1310" y="380" as="sourcePoint" />
            <mxPoint x="1410" y="555" as="targetPoint" />
          </mxGeometry>
        </mxCell>
        <mxCell id="C4tHGR8kcUQV5d1W9FfS-33" value="" style="endArrow=none;html=1;rounded=0;entryX=1;entryY=0.5;entryDx=0;entryDy=0;" parent="1" target="C4tHGR8kcUQV5d1W9FfS-34" edge="1">
          <mxGeometry width="50" height="50" relative="1" as="geometry">
            <mxPoint x="1310" y="380" as="sourcePoint" />
            <mxPoint x="1290" y="380" as="targetPoint" />
          </mxGeometry>
        </mxCell>
        <mxCell id="C4tHGR8kcUQV5d1W9FfS-34" value="" style="rounded=0;whiteSpace=wrap;html=1;" parent="1" vertex="1">
          <mxGeometry x="1320" y="375" width="10" height="10" as="geometry" />
        </mxCell>
        <mxCell id="C4tHGR8kcUQV5d1W9FfS-35" value="" style="endArrow=none;html=1;rounded=0;" parent="1" edge="1">
          <mxGeometry width="50" height="50" relative="1" as="geometry">
            <mxPoint x="1300" y="385" as="sourcePoint" />
            <mxPoint x="1310" y="375" as="targetPoint" />
          </mxGeometry>
        </mxCell>
        <mxCell id="C4tHGR8kcUQV5d1W9FfS-36" value="8" style="text;html=1;align=center;verticalAlign=middle;whiteSpace=wrap;rounded=0;" parent="1" vertex="1">
          <mxGeometry x="1300" y="385" width="10" height="10" as="geometry" />
        </mxCell>
        <mxCell id="C4tHGR8kcUQV5d1W9FfS-37" value="" style="rounded=0;whiteSpace=wrap;html=1;" parent="1" vertex="1">
          <mxGeometry x="1260" y="415" width="30" height="30" as="geometry" />
        </mxCell>
        <mxCell id="C4tHGR8kcUQV5d1W9FfS-38" value="" style="triangle;whiteSpace=wrap;html=1;" parent="1" vertex="1">
          <mxGeometry x="1260" y="415" width="30" height="30" as="geometry" />
        </mxCell>
        <mxCell id="C4tHGR8kcUQV5d1W9FfS-39" value="" style="endArrow=none;html=1;rounded=0;entryX=1;entryY=0.5;entryDx=0;entryDy=0;" parent="1" source="C4tHGR8kcUQV5d1W9FfS-41" target="C4tHGR8kcUQV5d1W9FfS-38" edge="1">
          <mxGeometry width="50" height="50" relative="1" as="geometry">
            <mxPoint x="1310" y="430" as="sourcePoint" />
            <mxPoint x="1410" y="605" as="targetPoint" />
          </mxGeometry>
        </mxCell>
        <mxCell id="C4tHGR8kcUQV5d1W9FfS-40" value="" style="endArrow=none;html=1;rounded=0;entryX=1;entryY=0.5;entryDx=0;entryDy=0;" parent="1" target="C4tHGR8kcUQV5d1W9FfS-41" edge="1">
          <mxGeometry width="50" height="50" relative="1" as="geometry">
            <mxPoint x="1310" y="430" as="sourcePoint" />
            <mxPoint x="1290" y="430" as="targetPoint" />
          </mxGeometry>
        </mxCell>
        <mxCell id="C4tHGR8kcUQV5d1W9FfS-41" value="" style="rounded=0;whiteSpace=wrap;html=1;" parent="1" vertex="1">
          <mxGeometry x="1320" y="425" width="10" height="10" as="geometry" />
        </mxCell>
        <mxCell id="C4tHGR8kcUQV5d1W9FfS-42" value="" style="endArrow=none;html=1;rounded=0;" parent="1" edge="1">
          <mxGeometry width="50" height="50" relative="1" as="geometry">
            <mxPoint x="1300" y="435" as="sourcePoint" />
            <mxPoint x="1310" y="425" as="targetPoint" />
          </mxGeometry>
        </mxCell>
        <mxCell id="C4tHGR8kcUQV5d1W9FfS-43" value="8" style="text;html=1;align=center;verticalAlign=middle;whiteSpace=wrap;rounded=0;" parent="1" vertex="1">
          <mxGeometry x="1300" y="435" width="10" height="10" as="geometry" />
        </mxCell>
        <mxCell id="C4tHGR8kcUQV5d1W9FfS-44" value="" style="rounded=0;whiteSpace=wrap;html=1;" parent="1" vertex="1">
          <mxGeometry x="1260" y="465" width="30" height="30" as="geometry" />
        </mxCell>
        <mxCell id="C4tHGR8kcUQV5d1W9FfS-45" value="" style="triangle;whiteSpace=wrap;html=1;" parent="1" vertex="1">
          <mxGeometry x="1260" y="465" width="30" height="30" as="geometry" />
        </mxCell>
        <mxCell id="C4tHGR8kcUQV5d1W9FfS-46" value="" style="endArrow=none;html=1;rounded=0;entryX=1;entryY=0.5;entryDx=0;entryDy=0;" parent="1" source="C4tHGR8kcUQV5d1W9FfS-48" target="C4tHGR8kcUQV5d1W9FfS-45" edge="1">
          <mxGeometry width="50" height="50" relative="1" as="geometry">
            <mxPoint x="1310" y="480" as="sourcePoint" />
            <mxPoint x="1410" y="655" as="targetPoint" />
          </mxGeometry>
        </mxCell>
        <mxCell id="C4tHGR8kcUQV5d1W9FfS-47" value="" style="endArrow=none;html=1;rounded=0;entryX=1;entryY=0.5;entryDx=0;entryDy=0;" parent="1" target="C4tHGR8kcUQV5d1W9FfS-48" edge="1">
          <mxGeometry width="50" height="50" relative="1" as="geometry">
            <mxPoint x="1310" y="480" as="sourcePoint" />
            <mxPoint x="1290" y="480" as="targetPoint" />
          </mxGeometry>
        </mxCell>
        <mxCell id="C4tHGR8kcUQV5d1W9FfS-48" value="" style="rounded=0;whiteSpace=wrap;html=1;" parent="1" vertex="1">
          <mxGeometry x="1320" y="475" width="10" height="10" as="geometry" />
        </mxCell>
        <mxCell id="C4tHGR8kcUQV5d1W9FfS-49" value="" style="endArrow=none;html=1;rounded=0;" parent="1" edge="1">
          <mxGeometry width="50" height="50" relative="1" as="geometry">
            <mxPoint x="1300" y="485" as="sourcePoint" />
            <mxPoint x="1310" y="475" as="targetPoint" />
          </mxGeometry>
        </mxCell>
        <mxCell id="C4tHGR8kcUQV5d1W9FfS-50" value="8" style="text;html=1;align=center;verticalAlign=middle;whiteSpace=wrap;rounded=0;" parent="1" vertex="1">
          <mxGeometry x="1300" y="485" width="10" height="10" as="geometry" />
        </mxCell>
        <mxCell id="C4tHGR8kcUQV5d1W9FfS-51" value="" style="rounded=0;whiteSpace=wrap;html=1;" parent="1" vertex="1">
          <mxGeometry x="1260" y="515" width="30" height="30" as="geometry" />
        </mxCell>
        <mxCell id="C4tHGR8kcUQV5d1W9FfS-52" value="" style="triangle;whiteSpace=wrap;html=1;" parent="1" vertex="1">
          <mxGeometry x="1260" y="515" width="30" height="30" as="geometry" />
        </mxCell>
        <mxCell id="C4tHGR8kcUQV5d1W9FfS-53" value="" style="endArrow=none;html=1;rounded=0;entryX=1;entryY=0.5;entryDx=0;entryDy=0;" parent="1" source="C4tHGR8kcUQV5d1W9FfS-55" target="C4tHGR8kcUQV5d1W9FfS-52" edge="1">
          <mxGeometry width="50" height="50" relative="1" as="geometry">
            <mxPoint x="1310" y="530" as="sourcePoint" />
            <mxPoint x="1410" y="705" as="targetPoint" />
          </mxGeometry>
        </mxCell>
        <mxCell id="C4tHGR8kcUQV5d1W9FfS-54" value="" style="endArrow=none;html=1;rounded=0;entryX=1;entryY=0.5;entryDx=0;entryDy=0;" parent="1" target="C4tHGR8kcUQV5d1W9FfS-55" edge="1">
          <mxGeometry width="50" height="50" relative="1" as="geometry">
            <mxPoint x="1310" y="530" as="sourcePoint" />
            <mxPoint x="1290" y="530" as="targetPoint" />
          </mxGeometry>
        </mxCell>
        <mxCell id="C4tHGR8kcUQV5d1W9FfS-55" value="" style="rounded=0;whiteSpace=wrap;html=1;" parent="1" vertex="1">
          <mxGeometry x="1320" y="525" width="10" height="10" as="geometry" />
        </mxCell>
        <mxCell id="C4tHGR8kcUQV5d1W9FfS-56" value="" style="endArrow=none;html=1;rounded=0;" parent="1" edge="1">
          <mxGeometry width="50" height="50" relative="1" as="geometry">
            <mxPoint x="1300" y="535" as="sourcePoint" />
            <mxPoint x="1310" y="525" as="targetPoint" />
          </mxGeometry>
        </mxCell>
        <mxCell id="C4tHGR8kcUQV5d1W9FfS-57" value="8" style="text;html=1;align=center;verticalAlign=middle;whiteSpace=wrap;rounded=0;" parent="1" vertex="1">
          <mxGeometry x="1300" y="535" width="10" height="10" as="geometry" />
        </mxCell>
        <mxCell id="C4tHGR8kcUQV5d1W9FfS-58" value="" style="rounded=0;whiteSpace=wrap;html=1;" parent="1" vertex="1">
          <mxGeometry x="1260" y="565" width="30" height="30" as="geometry" />
        </mxCell>
        <mxCell id="C4tHGR8kcUQV5d1W9FfS-59" value="" style="triangle;whiteSpace=wrap;html=1;" parent="1" vertex="1">
          <mxGeometry x="1260" y="565" width="30" height="30" as="geometry" />
        </mxCell>
        <mxCell id="C4tHGR8kcUQV5d1W9FfS-60" value="" style="endArrow=none;html=1;rounded=0;entryX=1;entryY=0.5;entryDx=0;entryDy=0;" parent="1" source="C4tHGR8kcUQV5d1W9FfS-62" target="C4tHGR8kcUQV5d1W9FfS-59" edge="1">
          <mxGeometry width="50" height="50" relative="1" as="geometry">
            <mxPoint x="1310" y="580" as="sourcePoint" />
            <mxPoint x="1410" y="755" as="targetPoint" />
          </mxGeometry>
        </mxCell>
        <mxCell id="C4tHGR8kcUQV5d1W9FfS-61" value="" style="endArrow=none;html=1;rounded=0;entryX=1;entryY=0.5;entryDx=0;entryDy=0;" parent="1" target="C4tHGR8kcUQV5d1W9FfS-62" edge="1">
          <mxGeometry width="50" height="50" relative="1" as="geometry">
            <mxPoint x="1310" y="580" as="sourcePoint" />
            <mxPoint x="1290" y="580" as="targetPoint" />
          </mxGeometry>
        </mxCell>
        <mxCell id="C4tHGR8kcUQV5d1W9FfS-62" value="" style="rounded=0;whiteSpace=wrap;html=1;" parent="1" vertex="1">
          <mxGeometry x="1320" y="575" width="10" height="10" as="geometry" />
        </mxCell>
        <mxCell id="C4tHGR8kcUQV5d1W9FfS-63" value="" style="endArrow=none;html=1;rounded=0;" parent="1" edge="1">
          <mxGeometry width="50" height="50" relative="1" as="geometry">
            <mxPoint x="1300" y="585" as="sourcePoint" />
            <mxPoint x="1310" y="575" as="targetPoint" />
          </mxGeometry>
        </mxCell>
        <mxCell id="C4tHGR8kcUQV5d1W9FfS-64" value="8" style="text;html=1;align=center;verticalAlign=middle;whiteSpace=wrap;rounded=0;" parent="1" vertex="1">
          <mxGeometry x="1300" y="585" width="10" height="10" as="geometry" />
        </mxCell>
        <mxCell id="C4tHGR8kcUQV5d1W9FfS-65" value="" style="endArrow=none;html=1;rounded=0;entryX=0;entryY=0.5;entryDx=0;entryDy=0;" parent="1" target="C4tHGR8kcUQV5d1W9FfS-52" edge="1">
          <mxGeometry width="50" height="50" relative="1" as="geometry">
            <mxPoint x="1230" y="530" as="sourcePoint" />
            <mxPoint x="1180" y="575" as="targetPoint" />
          </mxGeometry>
        </mxCell>
        <mxCell id="C4tHGR8kcUQV5d1W9FfS-66" value="" style="endArrow=none;html=1;rounded=0;entryX=0;entryY=0.5;entryDx=0;entryDy=0;" parent="1" edge="1">
          <mxGeometry width="50" height="50" relative="1" as="geometry">
            <mxPoint x="1230" y="479.67" as="sourcePoint" />
            <mxPoint x="1260" y="479.67" as="targetPoint" />
          </mxGeometry>
        </mxCell>
        <mxCell id="C4tHGR8kcUQV5d1W9FfS-67" value="" style="endArrow=none;html=1;rounded=0;entryX=0;entryY=0.5;entryDx=0;entryDy=0;" parent="1" source="C4tHGR8kcUQV5d1W9FfS-69" edge="1">
          <mxGeometry width="50" height="50" relative="1" as="geometry">
            <mxPoint x="1230" y="429.67" as="sourcePoint" />
            <mxPoint x="1260" y="429.67" as="targetPoint" />
          </mxGeometry>
        </mxCell>
        <mxCell id="C4tHGR8kcUQV5d1W9FfS-68" value="" style="endArrow=none;html=1;rounded=0;entryX=0;entryY=0.5;entryDx=0;entryDy=0;" parent="1" source="C4tHGR8kcUQV5d1W9FfS-100" edge="1">
          <mxGeometry width="50" height="50" relative="1" as="geometry">
            <mxPoint x="1230" y="379.67" as="sourcePoint" />
            <mxPoint x="1260" y="379.67" as="targetPoint" />
          </mxGeometry>
        </mxCell>
        <mxCell id="C4tHGR8kcUQV5d1W9FfS-69" value="" style="shape=waypoint;sketch=0;fillStyle=solid;size=6;pointerEvents=1;points=[];fillColor=none;resizable=0;rotatable=0;perimeter=centerPerimeter;snapToPoint=1;" parent="1" vertex="1">
          <mxGeometry x="1220" y="419.6700000000001" width="20" height="20" as="geometry" />
        </mxCell>
        <mxCell id="C4tHGR8kcUQV5d1W9FfS-70" value="" style="shape=waypoint;sketch=0;fillStyle=solid;size=6;pointerEvents=1;points=[];fillColor=none;resizable=0;rotatable=0;perimeter=centerPerimeter;snapToPoint=1;" parent="1" vertex="1">
          <mxGeometry x="1220" y="470" width="20" height="20" as="geometry" />
        </mxCell>
        <mxCell id="C4tHGR8kcUQV5d1W9FfS-71" value="" style="shape=waypoint;sketch=0;fillStyle=solid;size=6;pointerEvents=1;points=[];fillColor=none;resizable=0;rotatable=0;perimeter=centerPerimeter;snapToPoint=1;" parent="1" vertex="1">
          <mxGeometry x="1220" y="520" width="20" height="20" as="geometry" />
        </mxCell>
        <mxCell id="C4tHGR8kcUQV5d1W9FfS-72" value="CK" style="text;html=1;align=center;verticalAlign=middle;whiteSpace=wrap;rounded=0;" parent="1" vertex="1">
          <mxGeometry x="460" y="462.5" width="60" height="30" as="geometry" />
        </mxCell>
        <mxCell id="C4tHGR8kcUQV5d1W9FfS-73" value="RST" style="text;html=1;align=center;verticalAlign=middle;whiteSpace=wrap;rounded=0;" parent="1" vertex="1">
          <mxGeometry x="460" y="332.5" width="60" height="30" as="geometry" />
        </mxCell>
        <mxCell id="C4tHGR8kcUQV5d1W9FfS-74" value="Hex0" style="text;html=1;align=center;verticalAlign=middle;whiteSpace=wrap;rounded=0;" parent="1" vertex="1">
          <mxGeometry x="1330" y="300" width="30" height="30" as="geometry" />
        </mxCell>
        <mxCell id="C4tHGR8kcUQV5d1W9FfS-75" value="Hex1" style="text;html=1;align=center;verticalAlign=middle;whiteSpace=wrap;rounded=0;" parent="1" vertex="1">
          <mxGeometry x="1330" y="345" width="30" height="30" as="geometry" />
        </mxCell>
        <mxCell id="C4tHGR8kcUQV5d1W9FfS-76" value="Hex2" style="text;html=1;align=center;verticalAlign=middle;whiteSpace=wrap;rounded=0;" parent="1" vertex="1">
          <mxGeometry x="1330" y="400" width="30" height="30" as="geometry" />
        </mxCell>
        <mxCell id="C4tHGR8kcUQV5d1W9FfS-77" value="Hex3" style="text;html=1;align=center;verticalAlign=middle;whiteSpace=wrap;rounded=0;" parent="1" vertex="1">
          <mxGeometry x="1330" y="445" width="30" height="30" as="geometry" />
        </mxCell>
        <mxCell id="C4tHGR8kcUQV5d1W9FfS-78" value="Hex4" style="text;html=1;align=center;verticalAlign=middle;whiteSpace=wrap;rounded=0;" parent="1" vertex="1">
          <mxGeometry x="1330" y="495" width="30" height="30" as="geometry" />
        </mxCell>
        <mxCell id="C4tHGR8kcUQV5d1W9FfS-79" value="Hex5" style="text;html=1;align=center;verticalAlign=middle;whiteSpace=wrap;rounded=0;" parent="1" vertex="1">
          <mxGeometry x="1330" y="545" width="30" height="30" as="geometry" />
        </mxCell>
        <mxCell id="C4tHGR8kcUQV5d1W9FfS-80" value="" style="endArrow=none;html=1;rounded=0;exitX=1;exitY=0.75;exitDx=0;exitDy=0;entryX=0.451;entryY=1.098;entryDx=0;entryDy=0;entryPerimeter=0;" parent="1" source="C4tHGR8kcUQV5d1W9FfS-62" target="C4tHGR8kcUQV5d1W9FfS-12" edge="1">
          <mxGeometry width="50" height="50" relative="1" as="geometry">
            <mxPoint x="1440" y="605" as="sourcePoint" />
            <mxPoint x="1490" y="555" as="targetPoint" />
            <Array as="points">
              <mxPoint x="1394" y="580" />
            </Array>
          </mxGeometry>
        </mxCell>
        <mxCell id="C4tHGR8kcUQV5d1W9FfS-81" value="" style="endArrow=none;html=1;rounded=0;exitX=1;exitY=0.5;exitDx=0;exitDy=0;entryX=0.54;entryY=1.065;entryDx=0;entryDy=0;entryPerimeter=0;" parent="1" source="C4tHGR8kcUQV5d1W9FfS-27" target="C4tHGR8kcUQV5d1W9FfS-14" edge="1">
          <mxGeometry width="50" height="50" relative="1" as="geometry">
            <mxPoint x="1430" y="445" as="sourcePoint" />
            <mxPoint x="1520" y="375" as="targetPoint" />
            <Array as="points">
              <mxPoint x="1370" y="330" />
              <mxPoint x="1370" y="375" />
              <mxPoint x="1526" y="375" />
            </Array>
          </mxGeometry>
        </mxCell>
        <mxCell id="C4tHGR8kcUQV5d1W9FfS-82" value="" style="endArrow=none;html=1;rounded=0;exitX=1;exitY=0.5;exitDx=0;exitDy=0;entryX=0.418;entryY=1.056;entryDx=0;entryDy=0;entryPerimeter=0;" parent="1" source="C4tHGR8kcUQV5d1W9FfS-34" target="C4tHGR8kcUQV5d1W9FfS-13" edge="1">
          <mxGeometry width="50" height="50" relative="1" as="geometry">
            <mxPoint x="1490" y="445" as="sourcePoint" />
            <mxPoint x="1540" y="395" as="targetPoint" />
            <Array as="points">
              <mxPoint x="1360" y="380" />
              <mxPoint x="1360" y="395" />
              <mxPoint x="1483" y="395" />
            </Array>
          </mxGeometry>
        </mxCell>
        <mxCell id="C4tHGR8kcUQV5d1W9FfS-83" value="" style="rounded=0;whiteSpace=wrap;html=1;strokeColor=#000000;" parent="1" vertex="1">
          <mxGeometry x="510" y="517.5" width="20" height="20" as="geometry" />
        </mxCell>
        <mxCell id="C4tHGR8kcUQV5d1W9FfS-84" value="PAUSE" style="text;html=1;align=center;verticalAlign=middle;whiteSpace=wrap;rounded=0;fontColor=#000000;" parent="1" vertex="1">
          <mxGeometry x="450" y="512.5" width="60" height="30" as="geometry" />
        </mxCell>
        <mxCell id="C4tHGR8kcUQV5d1W9FfS-85" value="" style="group" parent="1" vertex="1" connectable="0">
          <mxGeometry x="710" y="367.5" width="50" height="90" as="geometry" />
        </mxCell>
        <mxCell id="C4tHGR8kcUQV5d1W9FfS-86" value="" style="rounded=0;whiteSpace=wrap;html=1;" parent="C4tHGR8kcUQV5d1W9FfS-85" vertex="1">
          <mxGeometry width="50" height="90" as="geometry" />
        </mxCell>
        <mxCell id="C4tHGR8kcUQV5d1W9FfS-87" value="" style="triangle;whiteSpace=wrap;html=1;" parent="C4tHGR8kcUQV5d1W9FfS-85" vertex="1">
          <mxGeometry width="30" height="90" as="geometry" />
        </mxCell>
        <mxCell id="C4tHGR8kcUQV5d1W9FfS-88" value="1&lt;div&gt;&lt;br&gt;&lt;/div&gt;&lt;div&gt;&lt;br&gt;&lt;/div&gt;&lt;div&gt;&lt;br&gt;&lt;/div&gt;&lt;div&gt;0&lt;/div&gt;" style="text;html=1;align=center;verticalAlign=middle;whiteSpace=wrap;rounded=0;" parent="C4tHGR8kcUQV5d1W9FfS-85" vertex="1">
          <mxGeometry x="30" y="30" width="10" height="30" as="geometry" />
        </mxCell>
        <mxCell id="C4tHGR8kcUQV5d1W9FfS-89" value="" style="endArrow=none;html=1;rounded=0;" parent="1" source="C4tHGR8kcUQV5d1W9FfS-106" edge="1">
          <mxGeometry width="50" height="50" relative="1" as="geometry">
            <mxPoint x="1120" y="402.23" as="sourcePoint" />
            <mxPoint x="1230" y="402.5" as="targetPoint" />
            <Array as="points" />
          </mxGeometry>
        </mxCell>
        <mxCell id="C4tHGR8kcUQV5d1W9FfS-90" value="" style="endArrow=none;html=1;rounded=0;" parent="1" source="C4tHGR8kcUQV5d1W9FfS-91" edge="1">
          <mxGeometry width="50" height="50" relative="1" as="geometry">
            <mxPoint x="690" y="357.5" as="sourcePoint" />
            <mxPoint x="710" y="387.5" as="targetPoint" />
            <Array as="points">
              <mxPoint x="690" y="387.5" />
            </Array>
          </mxGeometry>
        </mxCell>
        <mxCell id="C4tHGR8kcUQV5d1W9FfS-91" value="" style="shape=waypoint;sketch=0;fillStyle=solid;size=6;pointerEvents=1;points=[];fillColor=none;resizable=0;rotatable=0;perimeter=centerPerimeter;snapToPoint=1;" parent="1" vertex="1">
          <mxGeometry x="680" y="345" width="20" height="20" as="geometry" />
        </mxCell>
        <mxCell id="C4tHGR8kcUQV5d1W9FfS-92" value="" style="endArrow=none;html=1;rounded=0;" parent="1" edge="1">
          <mxGeometry width="50" height="50" relative="1" as="geometry">
            <mxPoint x="610" y="392.5" as="sourcePoint" />
            <mxPoint x="1190" y="402.5" as="targetPoint" />
            <Array as="points">
              <mxPoint x="560" y="392.5" />
              <mxPoint x="560" y="355" />
              <mxPoint x="770" y="355" />
              <mxPoint x="960" y="355" />
              <mxPoint x="1030" y="355" />
              <mxPoint x="1130" y="355.5" />
              <mxPoint x="1190" y="355.5" />
            </Array>
          </mxGeometry>
        </mxCell>
        <mxCell id="C4tHGR8kcUQV5d1W9FfS-93" value="" style="endArrow=none;html=1;rounded=0;exitX=1;exitY=0.5;exitDx=0;exitDy=0;" parent="1" source="C4tHGR8kcUQV5d1W9FfS-1" edge="1">
          <mxGeometry width="50" height="50" relative="1" as="geometry">
            <mxPoint x="790" y="667.5" as="sourcePoint" />
            <mxPoint x="710" y="437.5" as="targetPoint" />
            <Array as="points">
              <mxPoint x="690" y="412.5" />
              <mxPoint x="690" y="437.5" />
            </Array>
          </mxGeometry>
        </mxCell>
        <mxCell id="C4tHGR8kcUQV5d1W9FfS-94" value="ADD" style="text;html=1;align=center;verticalAlign=middle;whiteSpace=wrap;rounded=0;" parent="1" vertex="1">
          <mxGeometry x="670" y="397.5" width="20" height="10" as="geometry" />
        </mxCell>
        <mxCell id="C4tHGR8kcUQV5d1W9FfS-95" value="26" style="text;html=1;align=center;verticalAlign=middle;whiteSpace=wrap;rounded=0;" parent="1" vertex="1">
          <mxGeometry x="690" y="432.5" width="10" height="30" as="geometry" />
        </mxCell>
        <mxCell id="C4tHGR8kcUQV5d1W9FfS-96" value="" style="endArrow=none;html=1;rounded=0;" parent="1" edge="1">
          <mxGeometry width="50" height="50" relative="1" as="geometry">
            <mxPoint x="780" y="417.5" as="sourcePoint" />
            <mxPoint x="790" y="407.5" as="targetPoint" />
          </mxGeometry>
        </mxCell>
        <mxCell id="C4tHGR8kcUQV5d1W9FfS-97" value="MUX&lt;div&gt;&lt;br&gt;&lt;/div&gt;&lt;div&gt;&lt;br&gt;&lt;/div&gt;&lt;div&gt;26&lt;/div&gt;" style="text;html=1;align=center;verticalAlign=middle;whiteSpace=wrap;rounded=0;" parent="1" vertex="1">
          <mxGeometry x="780" y="405" width="10" height="20" as="geometry" />
        </mxCell>
        <mxCell id="C4tHGR8kcUQV5d1W9FfS-98" value="" style="endArrow=none;html=1;rounded=0;" parent="1" edge="1">
          <mxGeometry width="50" height="50" relative="1" as="geometry">
            <mxPoint x="1150" y="360" as="sourcePoint" />
            <mxPoint x="1160" y="350" as="targetPoint" />
          </mxGeometry>
        </mxCell>
        <mxCell id="C4tHGR8kcUQV5d1W9FfS-99" value="" style="endArrow=none;html=1;rounded=0;entryDx=0;entryDy=0;" parent="1" target="C4tHGR8kcUQV5d1W9FfS-100" edge="1">
          <mxGeometry width="50" height="50" relative="1" as="geometry">
            <mxPoint x="1230" y="379.67" as="sourcePoint" />
            <mxPoint x="1260" y="379.67" as="targetPoint" />
          </mxGeometry>
        </mxCell>
        <mxCell id="C4tHGR8kcUQV5d1W9FfS-100" value="" style="shape=waypoint;sketch=0;fillStyle=solid;size=6;pointerEvents=1;points=[];fillColor=none;resizable=0;rotatable=0;perimeter=centerPerimeter;snapToPoint=1;" parent="1" vertex="1">
          <mxGeometry x="1220" y="370" width="20" height="20" as="geometry" />
        </mxCell>
        <mxCell id="C4tHGR8kcUQV5d1W9FfS-101" value="26" style="text;html=1;align=center;verticalAlign=middle;whiteSpace=wrap;rounded=0;" parent="1" vertex="1">
          <mxGeometry x="1130" y="330" width="50" height="30" as="geometry" />
        </mxCell>
        <mxCell id="C4tHGR8kcUQV5d1W9FfS-102" value="" style="group" parent="1" vertex="1" connectable="0">
          <mxGeometry x="944" y="362.5" width="60" height="90" as="geometry" />
        </mxCell>
        <mxCell id="C4tHGR8kcUQV5d1W9FfS-103" value="" style="rounded=0;whiteSpace=wrap;html=1;" parent="C4tHGR8kcUQV5d1W9FfS-102" vertex="1">
          <mxGeometry width="50" height="90" as="geometry" />
        </mxCell>
        <mxCell id="C4tHGR8kcUQV5d1W9FfS-104" value="" style="triangle;whiteSpace=wrap;html=1;" parent="C4tHGR8kcUQV5d1W9FfS-102" vertex="1">
          <mxGeometry width="30" height="90" as="geometry" />
        </mxCell>
        <mxCell id="C4tHGR8kcUQV5d1W9FfS-105" value="&lt;span&gt;1&lt;/span&gt;&lt;div&gt;&lt;span&gt;&lt;br&gt;&lt;/span&gt;&lt;/div&gt;&lt;div&gt;&lt;span&gt;&lt;br&gt;&lt;/span&gt;&lt;/div&gt;&lt;div&gt;&lt;span&gt;0&lt;/span&gt;&lt;/div&gt;" style="text;html=1;align=center;verticalAlign=middle;whiteSpace=wrap;rounded=0;fontSize=13;" parent="C4tHGR8kcUQV5d1W9FfS-102" vertex="1">
          <mxGeometry x="25" y="30" width="10" height="30" as="geometry" />
        </mxCell>
        <mxCell id="C4tHGR8kcUQV5d1W9FfS-106" value="" style="shape=waypoint;sketch=0;fillStyle=solid;size=6;pointerEvents=1;points=[];fillColor=none;resizable=0;rotatable=0;perimeter=centerPerimeter;snapToPoint=1;" parent="1" vertex="1">
          <mxGeometry x="1220" y="392.5" width="20" height="20" as="geometry" />
        </mxCell>
        <mxCell id="C4tHGR8kcUQV5d1W9FfS-107" value="&lt;font style=&quot;font-size: 7px;&quot;&gt;&quot;000...00&quot;&lt;/font&gt;" style="text;html=1;align=center;verticalAlign=middle;whiteSpace=wrap;rounded=0;" parent="1" vertex="1">
          <mxGeometry x="900" y="375" width="30" height="12.5" as="geometry" />
        </mxCell>
        <mxCell id="C4tHGR8kcUQV5d1W9FfS-108" value="" style="endArrow=none;html=1;rounded=0;entryX=0.554;entryY=0.007;entryDx=0;entryDy=0;entryPerimeter=0;exitX=0.987;exitY=0.555;exitDx=0;exitDy=0;exitPerimeter=0;" parent="1" source="C4tHGR8kcUQV5d1W9FfS-103" target="C4tHGR8kcUQV5d1W9FfS-3" edge="1">
          <mxGeometry width="50" height="50" relative="1" as="geometry">
            <mxPoint x="1020" y="412.5" as="sourcePoint" />
            <mxPoint x="994" y="412.5" as="targetPoint" />
            <Array as="points" />
          </mxGeometry>
        </mxCell>
        <mxCell id="C4tHGR8kcUQV5d1W9FfS-109" value="" style="endArrow=none;html=1;rounded=0;entryX=0.375;entryY=0.736;entryDx=0;entryDy=0;entryPerimeter=0;" parent="1" source="C4tHGR8kcUQV5d1W9FfS-112" target="C4tHGR8kcUQV5d1W9FfS-106" edge="1">
          <mxGeometry width="50" height="50" relative="1" as="geometry">
            <mxPoint x="1090" y="402.5" as="sourcePoint" />
            <mxPoint x="1170" y="417.5" as="targetPoint" />
            <Array as="points" />
          </mxGeometry>
        </mxCell>
        <mxCell id="C4tHGR8kcUQV5d1W9FfS-110" value="" style="endArrow=none;html=1;rounded=0;exitDx=0;exitDy=0;entryX=-0.009;entryY=0.559;entryDx=0;entryDy=0;entryPerimeter=0;" parent="1" source="C4tHGR8kcUQV5d1W9FfS-154" target="C4tHGR8kcUQV5d1W9FfS-104" edge="1">
          <mxGeometry width="50" height="50" relative="1" as="geometry">
            <mxPoint x="880" y="442.5" as="sourcePoint" />
            <mxPoint x="942" y="412.5" as="targetPoint" />
            <Array as="points" />
          </mxGeometry>
        </mxCell>
        <mxCell id="C4tHGR8kcUQV5d1W9FfS-111" value="" style="endArrow=none;html=1;rounded=0;entryDx=0;entryDy=0;entryPerimeter=0;" parent="1" target="C4tHGR8kcUQV5d1W9FfS-112" edge="1">
          <mxGeometry width="50" height="50" relative="1" as="geometry">
            <mxPoint x="1090" y="402.5" as="sourcePoint" />
            <mxPoint x="1230" y="402.5" as="targetPoint" />
            <Array as="points" />
          </mxGeometry>
        </mxCell>
        <mxCell id="C4tHGR8kcUQV5d1W9FfS-112" value="" style="shape=waypoint;sketch=0;fillStyle=solid;size=6;pointerEvents=1;points=[];fillColor=none;resizable=0;rotatable=0;perimeter=centerPerimeter;snapToPoint=1;" parent="1" vertex="1">
          <mxGeometry x="1180" y="392.5" width="20" height="20" as="geometry" />
        </mxCell>
        <mxCell id="C4tHGR8kcUQV5d1W9FfS-113" value="" style="endArrow=none;html=1;rounded=0;entryX=-0.025;entryY=0.221;entryDx=0;entryDy=0;entryPerimeter=0;" parent="1" target="C4tHGR8kcUQV5d1W9FfS-104" edge="1">
          <mxGeometry width="50" height="50" relative="1" as="geometry">
            <mxPoint x="930" y="382.5" as="sourcePoint" />
            <mxPoint x="910" y="392.5" as="targetPoint" />
          </mxGeometry>
        </mxCell>
        <mxCell id="C4tHGR8kcUQV5d1W9FfS-261" style="edgeStyle=orthogonalEdgeStyle;rounded=0;orthogonalLoop=1;jettySize=auto;html=1;exitX=0;exitY=0.75;exitDx=0;exitDy=0;entryX=1;entryY=0.5;entryDx=0;entryDy=0;endArrow=none;endFill=0;" parent="1" source="C4tHGR8kcUQV5d1W9FfS-114" target="C4tHGR8kcUQV5d1W9FfS-248" edge="1">
          <mxGeometry relative="1" as="geometry">
            <Array as="points">
              <mxPoint x="840" y="463" />
              <mxPoint x="840" y="242" />
            </Array>
          </mxGeometry>
        </mxCell>
        <mxCell id="C4tHGR8kcUQV5d1W9FfS-114" value="=" style="rounded=0;whiteSpace=wrap;html=1;" parent="1" vertex="1">
          <mxGeometry x="849" y="432.5" width="30" height="40" as="geometry" />
        </mxCell>
        <mxCell id="C4tHGR8kcUQV5d1W9FfS-115" value="" style="endArrow=none;html=1;rounded=0;entryX=0;entryY=0.25;entryDx=0;entryDy=0;" parent="1" target="C4tHGR8kcUQV5d1W9FfS-114" edge="1">
          <mxGeometry width="50" height="50" relative="1" as="geometry">
            <mxPoint x="810" y="412.5" as="sourcePoint" />
            <mxPoint x="870" y="422.5" as="targetPoint" />
            <Array as="points">
              <mxPoint x="810" y="442.5" />
            </Array>
          </mxGeometry>
        </mxCell>
        <mxCell id="C4tHGR8kcUQV5d1W9FfS-118" value="" style="endArrow=none;html=1;rounded=0;entryX=0.719;entryY=1;entryDx=0;entryDy=0;exitX=1;exitY=0.5;exitDx=0;exitDy=0;entryPerimeter=0;" parent="1" source="C4tHGR8kcUQV5d1W9FfS-114" target="C4tHGR8kcUQV5d1W9FfS-103" edge="1">
          <mxGeometry width="50" height="50" relative="1" as="geometry">
            <mxPoint x="860" y="532.5" as="sourcePoint" />
            <mxPoint x="910" y="482.5" as="targetPoint" />
            <Array as="points">
              <mxPoint x="930" y="452.5" />
              <mxPoint x="930" y="462.5" />
              <mxPoint x="980" y="462.5" />
            </Array>
          </mxGeometry>
        </mxCell>
        <mxCell id="C4tHGR8kcUQV5d1W9FfS-119" value="COMP&lt;div&gt;&lt;br&gt;&lt;/div&gt;&lt;div&gt;1&lt;/div&gt;" style="text;html=1;align=center;verticalAlign=middle;whiteSpace=wrap;rounded=0;" parent="1" vertex="1">
          <mxGeometry x="900" y="445" width="10" height="20" as="geometry" />
        </mxCell>
        <mxCell id="C4tHGR8kcUQV5d1W9FfS-120" value="" style="endArrow=none;html=1;rounded=0;" parent="1" edge="1">
          <mxGeometry width="50" height="50" relative="1" as="geometry">
            <mxPoint x="900" y="457.5" as="sourcePoint" />
            <mxPoint x="910" y="447.5" as="targetPoint" />
          </mxGeometry>
        </mxCell>
        <mxCell id="C4tHGR8kcUQV5d1W9FfS-121" value="" style="endArrow=none;html=1;rounded=0;" parent="1" edge="1">
          <mxGeometry width="50" height="50" relative="1" as="geometry">
            <mxPoint x="1010" y="417.5" as="sourcePoint" />
            <mxPoint x="1020" y="407.5" as="targetPoint" />
          </mxGeometry>
        </mxCell>
        <mxCell id="C4tHGR8kcUQV5d1W9FfS-122" value="MUX2&lt;div&gt;&lt;br&gt;&lt;/div&gt;&lt;div&gt;&lt;br&gt;&lt;/div&gt;&lt;div&gt;26&lt;/div&gt;" style="text;html=1;align=center;verticalAlign=middle;whiteSpace=wrap;rounded=0;" parent="1" vertex="1">
          <mxGeometry x="1010" y="407.5" width="10" height="22.5" as="geometry" />
        </mxCell>
        <mxCell id="C4tHGR8kcUQV5d1W9FfS-123" value="+" style="rounded=0;whiteSpace=wrap;html=1;" parent="1" vertex="1">
          <mxGeometry x="610" y="572.5" width="50" height="90" as="geometry" />
        </mxCell>
        <mxCell id="C4tHGR8kcUQV5d1W9FfS-124" value="" style="rounded=0;whiteSpace=wrap;html=1;rotation=-90;" parent="1" vertex="1">
          <mxGeometry x="1020" y="597.5" width="90" height="50" as="geometry" />
        </mxCell>
        <mxCell id="C4tHGR8kcUQV5d1W9FfS-125" value="" style="group;rotation=-90;" parent="1" vertex="1" connectable="0">
          <mxGeometry x="1050" y="607.5" width="26" height="20" as="geometry" />
        </mxCell>
        <mxCell id="C4tHGR8kcUQV5d1W9FfS-126" value="" style="endArrow=none;html=1;rounded=0;" parent="C4tHGR8kcUQV5d1W9FfS-125" edge="1">
          <mxGeometry width="50" height="50" relative="1" as="geometry">
            <mxPoint x="13" y="23" as="sourcePoint" />
            <mxPoint x="13" y="-3" as="targetPoint" />
          </mxGeometry>
        </mxCell>
        <mxCell id="C4tHGR8kcUQV5d1W9FfS-127" value="" style="endArrow=none;html=1;rounded=0;" parent="C4tHGR8kcUQV5d1W9FfS-125" edge="1">
          <mxGeometry width="50" height="50" relative="1" as="geometry">
            <mxPoint x="13" y="23" as="sourcePoint" />
            <mxPoint x="3" y="23" as="targetPoint" />
          </mxGeometry>
        </mxCell>
        <mxCell id="C4tHGR8kcUQV5d1W9FfS-128" value="" style="endArrow=none;html=1;rounded=0;" parent="C4tHGR8kcUQV5d1W9FfS-125" edge="1">
          <mxGeometry width="50" height="50" relative="1" as="geometry">
            <mxPoint x="23" y="-3" as="sourcePoint" />
            <mxPoint x="13" y="-3" as="targetPoint" />
          </mxGeometry>
        </mxCell>
        <mxCell id="C4tHGR8kcUQV5d1W9FfS-129" value="" style="endArrow=none;html=1;rounded=0;" parent="C4tHGR8kcUQV5d1W9FfS-125" edge="1">
          <mxGeometry width="50" height="50" relative="1" as="geometry">
            <mxPoint x="13" y="3" as="sourcePoint" />
            <mxPoint x="3" y="13" as="targetPoint" />
            <Array as="points">
              <mxPoint x="13" y="3" />
            </Array>
          </mxGeometry>
        </mxCell>
        <mxCell id="C4tHGR8kcUQV5d1W9FfS-130" value="" style="endArrow=none;html=1;rounded=0;" parent="C4tHGR8kcUQV5d1W9FfS-125" edge="1">
          <mxGeometry width="50" height="50" relative="1" as="geometry">
            <mxPoint x="13" y="3" as="sourcePoint" />
            <mxPoint x="23" y="13" as="targetPoint" />
          </mxGeometry>
        </mxCell>
        <mxCell id="C4tHGR8kcUQV5d1W9FfS-131" value="" style="triangle;whiteSpace=wrap;html=1;rotation=-90;" parent="1" vertex="1">
          <mxGeometry x="1057.5" y="635" width="15" height="50" as="geometry" />
        </mxCell>
        <mxCell id="C4tHGR8kcUQV5d1W9FfS-132" value="" style="endArrow=none;html=1;rounded=0;entryX=0.004;entryY=0.779;entryDx=0;entryDy=0;entryPerimeter=0;" parent="1" target="C4tHGR8kcUQV5d1W9FfS-123" edge="1">
          <mxGeometry width="50" height="50" relative="1" as="geometry">
            <mxPoint x="570" y="642.5" as="sourcePoint" />
            <mxPoint x="580" y="692.5" as="targetPoint" />
          </mxGeometry>
        </mxCell>
        <mxCell id="C4tHGR8kcUQV5d1W9FfS-133" value="1" style="text;html=1;align=center;verticalAlign=middle;whiteSpace=wrap;rounded=0;" parent="1" vertex="1">
          <mxGeometry x="550" y="622.5" width="20" height="30" as="geometry" />
        </mxCell>
        <mxCell id="C4tHGR8kcUQV5d1W9FfS-134" value="" style="endArrow=none;html=1;rounded=0;" parent="1" edge="1">
          <mxGeometry width="50" height="50" relative="1" as="geometry">
            <mxPoint x="720" y="622.5" as="sourcePoint" />
            <mxPoint x="730" y="612.5" as="targetPoint" />
          </mxGeometry>
        </mxCell>
        <mxCell id="C4tHGR8kcUQV5d1W9FfS-135" value="" style="endArrow=none;html=1;rounded=0;exitX=1;exitY=0.5;exitDx=0;exitDy=0;entryX=0;entryY=0.25;entryDx=0;entryDy=0;" parent="1" source="C4tHGR8kcUQV5d1W9FfS-123" target="C4tHGR8kcUQV5d1W9FfS-145" edge="1">
          <mxGeometry width="50" height="50" relative="1" as="geometry">
            <mxPoint x="790" y="872.5" as="sourcePoint" />
            <mxPoint x="760" y="618" as="targetPoint" />
            <Array as="points">
              <mxPoint x="690" y="617.5" />
              <mxPoint x="690" y="663" />
            </Array>
          </mxGeometry>
        </mxCell>
        <mxCell id="C4tHGR8kcUQV5d1W9FfS-136" value="ADD" style="text;html=1;align=center;verticalAlign=middle;whiteSpace=wrap;rounded=0;" parent="1" vertex="1">
          <mxGeometry x="670" y="602.5" width="20" height="10" as="geometry" />
        </mxCell>
        <mxCell id="C4tHGR8kcUQV5d1W9FfS-137" value="26" style="text;html=1;align=center;verticalAlign=middle;whiteSpace=wrap;rounded=0;" parent="1" vertex="1">
          <mxGeometry x="720" y="615" width="10" height="30" as="geometry" />
        </mxCell>
        <mxCell id="C4tHGR8kcUQV5d1W9FfS-138" value="" style="group" parent="1" vertex="1" connectable="0">
          <mxGeometry x="944" y="567.5" width="60" height="90" as="geometry" />
        </mxCell>
        <mxCell id="C4tHGR8kcUQV5d1W9FfS-139" value="" style="rounded=0;whiteSpace=wrap;html=1;" parent="C4tHGR8kcUQV5d1W9FfS-138" vertex="1">
          <mxGeometry width="50" height="90" as="geometry" />
        </mxCell>
        <mxCell id="C4tHGR8kcUQV5d1W9FfS-140" value="" style="triangle;whiteSpace=wrap;html=1;" parent="C4tHGR8kcUQV5d1W9FfS-138" vertex="1">
          <mxGeometry width="30" height="90" as="geometry" />
        </mxCell>
        <mxCell id="C4tHGR8kcUQV5d1W9FfS-141" value="&lt;span&gt;1&lt;/span&gt;&lt;div&gt;&lt;span&gt;&lt;br&gt;&lt;/span&gt;&lt;/div&gt;&lt;div&gt;&lt;span&gt;&lt;br&gt;&lt;/span&gt;&lt;/div&gt;&lt;div&gt;&lt;span&gt;0&lt;/span&gt;&lt;/div&gt;" style="text;html=1;align=center;verticalAlign=middle;whiteSpace=wrap;rounded=0;fontSize=13;" parent="C4tHGR8kcUQV5d1W9FfS-138" vertex="1">
          <mxGeometry x="25" y="30" width="10" height="30" as="geometry" />
        </mxCell>
        <mxCell id="C4tHGR8kcUQV5d1W9FfS-142" value="&lt;font style=&quot;font-size: 7px;&quot;&gt;&quot;000...00&quot;&lt;/font&gt;" style="text;html=1;align=center;verticalAlign=middle;whiteSpace=wrap;rounded=0;" parent="1" vertex="1">
          <mxGeometry x="900" y="580" width="30" height="12.5" as="geometry" />
        </mxCell>
        <mxCell id="C4tHGR8kcUQV5d1W9FfS-143" value="" style="endArrow=none;html=1;rounded=0;entryX=0.554;entryY=0.007;entryDx=0;entryDy=0;entryPerimeter=0;exitX=0.987;exitY=0.555;exitDx=0;exitDy=0;exitPerimeter=0;" parent="1" source="C4tHGR8kcUQV5d1W9FfS-139" target="C4tHGR8kcUQV5d1W9FfS-124" edge="1">
          <mxGeometry width="50" height="50" relative="1" as="geometry">
            <mxPoint x="1020" y="617.5" as="sourcePoint" />
            <mxPoint x="994" y="617.5" as="targetPoint" />
            <Array as="points" />
          </mxGeometry>
        </mxCell>
        <mxCell id="C4tHGR8kcUQV5d1W9FfS-144" value="" style="endArrow=none;html=1;rounded=0;entryX=-0.025;entryY=0.221;entryDx=0;entryDy=0;entryPerimeter=0;" parent="1" target="C4tHGR8kcUQV5d1W9FfS-140" edge="1">
          <mxGeometry width="50" height="50" relative="1" as="geometry">
            <mxPoint x="930" y="587.5" as="sourcePoint" />
            <mxPoint x="910" y="597.5" as="targetPoint" />
          </mxGeometry>
        </mxCell>
        <mxCell id="C4tHGR8kcUQV5d1W9FfS-240" style="edgeStyle=orthogonalEdgeStyle;rounded=0;orthogonalLoop=1;jettySize=auto;html=1;exitX=0;exitY=0.75;exitDx=0;exitDy=0;entryX=1;entryY=0.5;entryDx=0;entryDy=0;endArrow=none;endFill=0;" parent="1" source="C4tHGR8kcUQV5d1W9FfS-145" target="C4tHGR8kcUQV5d1W9FfS-213" edge="1">
          <mxGeometry relative="1" as="geometry">
            <Array as="points">
              <mxPoint x="830" y="683" />
              <mxPoint x="830" y="755" />
            </Array>
          </mxGeometry>
        </mxCell>
        <mxCell id="C4tHGR8kcUQV5d1W9FfS-145" value="=" style="rounded=0;whiteSpace=wrap;html=1;" parent="1" vertex="1">
          <mxGeometry x="839" y="652.5" width="30" height="40" as="geometry" />
        </mxCell>
        <mxCell id="C4tHGR8kcUQV5d1W9FfS-148" value="COMP2&lt;div&gt;&lt;div&gt;&lt;br&gt;&lt;/div&gt;&lt;div&gt;1&lt;/div&gt;&lt;/div&gt;" style="text;html=1;align=center;verticalAlign=middle;whiteSpace=wrap;rounded=0;" parent="1" vertex="1">
          <mxGeometry x="890" y="665" width="10" height="20" as="geometry" />
        </mxCell>
        <mxCell id="C4tHGR8kcUQV5d1W9FfS-149" value="" style="endArrow=none;html=1;rounded=0;" parent="1" edge="1">
          <mxGeometry width="50" height="50" relative="1" as="geometry">
            <mxPoint x="890" y="677.5" as="sourcePoint" />
            <mxPoint x="900" y="667.5" as="targetPoint" />
          </mxGeometry>
        </mxCell>
        <mxCell id="C4tHGR8kcUQV5d1W9FfS-150" value="" style="endArrow=none;html=1;rounded=0;" parent="1" edge="1">
          <mxGeometry width="50" height="50" relative="1" as="geometry">
            <mxPoint x="1010" y="622.5" as="sourcePoint" />
            <mxPoint x="1020" y="612.5" as="targetPoint" />
          </mxGeometry>
        </mxCell>
        <mxCell id="C4tHGR8kcUQV5d1W9FfS-151" value="MUX3&lt;div&gt;&lt;br&gt;&lt;/div&gt;&lt;div&gt;&lt;br&gt;&lt;/div&gt;&lt;div&gt;26&lt;/div&gt;" style="text;html=1;align=center;verticalAlign=middle;whiteSpace=wrap;rounded=0;" parent="1" vertex="1">
          <mxGeometry x="1010" y="612.5" width="10" height="20" as="geometry" />
        </mxCell>
        <mxCell id="C4tHGR8kcUQV5d1W9FfS-152" value="" style="endArrow=none;html=1;rounded=0;exitX=0.5;exitY=1;exitDx=0;exitDy=0;entryX=0;entryY=0.25;entryDx=0;entryDy=0;" parent="1" source="C4tHGR8kcUQV5d1W9FfS-124" target="C4tHGR8kcUQV5d1W9FfS-123" edge="1">
          <mxGeometry width="50" height="50" relative="1" as="geometry">
            <mxPoint x="720" y="600" as="sourcePoint" />
            <mxPoint x="770" y="550" as="targetPoint" />
            <Array as="points">
              <mxPoint x="1130" y="623" />
              <mxPoint x="1130" y="540" />
              <mxPoint x="635" y="540" />
              <mxPoint x="580" y="540" />
              <mxPoint x="580" y="595" />
            </Array>
          </mxGeometry>
        </mxCell>
        <mxCell id="C4tHGR8kcUQV5d1W9FfS-153" value="" style="endArrow=none;html=1;rounded=0;exitX=1;exitY=0.5;exitDx=0;exitDy=0;entryDx=0;entryDy=0;entryPerimeter=0;" parent="1" source="C4tHGR8kcUQV5d1W9FfS-86" target="C4tHGR8kcUQV5d1W9FfS-154" edge="1">
          <mxGeometry width="50" height="50" relative="1" as="geometry">
            <mxPoint x="760" y="413" as="sourcePoint" />
            <mxPoint x="944" y="413" as="targetPoint" />
            <Array as="points" />
          </mxGeometry>
        </mxCell>
        <mxCell id="C4tHGR8kcUQV5d1W9FfS-154" value="" style="shape=waypoint;sketch=0;fillStyle=solid;size=6;pointerEvents=1;points=[];fillColor=none;resizable=0;rotatable=0;perimeter=centerPerimeter;snapToPoint=1;" parent="1" vertex="1">
          <mxGeometry x="800" y="402.5" width="20" height="20" as="geometry" />
        </mxCell>
        <mxCell id="C4tHGR8kcUQV5d1W9FfS-155" value="" style="endArrow=none;html=1;rounded=0;entryX=0.5;entryY=1;entryDx=0;entryDy=0;exitDx=0;exitDy=0;" parent="1" source="C4tHGR8kcUQV5d1W9FfS-162" target="C4tHGR8kcUQV5d1W9FfS-139" edge="1">
          <mxGeometry width="50" height="50" relative="1" as="geometry">
            <mxPoint x="780" y="680" as="sourcePoint" />
            <mxPoint x="830" y="630" as="targetPoint" />
            <Array as="points" />
          </mxGeometry>
        </mxCell>
        <mxCell id="C4tHGR8kcUQV5d1W9FfS-156" value="" style="endArrow=none;html=1;rounded=0;exitX=1;exitY=0.5;exitDx=0;exitDy=0;entryX=0.006;entryY=0.827;entryDx=0;entryDy=0;entryPerimeter=0;" parent="1" source="C4tHGR8kcUQV5d1W9FfS-123" target="C4tHGR8kcUQV5d1W9FfS-140" edge="1">
          <mxGeometry width="50" height="50" relative="1" as="geometry">
            <mxPoint x="690" y="620" as="sourcePoint" />
            <mxPoint x="880" y="620" as="targetPoint" />
            <Array as="points">
              <mxPoint x="930" y="618" />
              <mxPoint x="930" y="642" />
            </Array>
          </mxGeometry>
        </mxCell>
        <mxCell id="C4tHGR8kcUQV5d1W9FfS-157" value="CPT2&lt;br&gt;&lt;div&gt;&lt;br&gt;&lt;/div&gt;&lt;div&gt;&lt;br&gt;&lt;/div&gt;&lt;div&gt;26&lt;/div&gt;" style="text;html=1;align=center;verticalAlign=middle;whiteSpace=wrap;rounded=0;" parent="1" vertex="1">
          <mxGeometry x="1110" y="612.5" width="10" height="20" as="geometry" />
        </mxCell>
        <mxCell id="C4tHGR8kcUQV5d1W9FfS-158" value="" style="endArrow=none;html=1;rounded=0;" parent="1" edge="1">
          <mxGeometry width="50" height="50" relative="1" as="geometry">
            <mxPoint x="1110" y="627.5" as="sourcePoint" />
            <mxPoint x="1120" y="617.5" as="targetPoint" />
          </mxGeometry>
        </mxCell>
        <mxCell id="C4tHGR8kcUQV5d1W9FfS-159" value="" style="verticalLabelPosition=bottom;shadow=0;dashed=0;align=center;html=1;verticalAlign=top;shape=mxgraph.electrical.logic_gates.inverter_2;rotation=-180;" parent="1" vertex="1">
          <mxGeometry x="829" y="522.5" width="20" height="10" as="geometry" />
        </mxCell>
        <mxCell id="C4tHGR8kcUQV5d1W9FfS-160" value="" style="endArrow=none;html=1;rounded=0;exitDx=0;exitDy=0;exitX=0;exitY=0.5;exitPerimeter=0;" parent="1" source="C4tHGR8kcUQV5d1W9FfS-159" target="C4tHGR8kcUQV5d1W9FfS-162" edge="1">
          <mxGeometry width="50" height="50" relative="1" as="geometry">
            <mxPoint x="900" y="520" as="sourcePoint" />
            <mxPoint x="970" y="670" as="targetPoint" />
            <Array as="points">
              <mxPoint x="1170" y="528" />
              <mxPoint x="1170" y="673" />
            </Array>
          </mxGeometry>
        </mxCell>
        <mxCell id="C4tHGR8kcUQV5d1W9FfS-161" value="" style="endArrow=none;html=1;rounded=0;entryDx=0;entryDy=0;exitX=1;exitY=0.5;exitDx=0;exitDy=0;" parent="1" source="C4tHGR8kcUQV5d1W9FfS-145" target="C4tHGR8kcUQV5d1W9FfS-162" edge="1">
          <mxGeometry width="50" height="50" relative="1" as="geometry">
            <mxPoint x="869" y="673" as="sourcePoint" />
            <mxPoint x="969" y="658" as="targetPoint" />
            <Array as="points" />
          </mxGeometry>
        </mxCell>
        <mxCell id="C4tHGR8kcUQV5d1W9FfS-162" value="" style="shape=waypoint;sketch=0;fillStyle=solid;size=6;pointerEvents=1;points=[];fillColor=none;resizable=0;rotatable=0;perimeter=centerPerimeter;snapToPoint=1;" parent="1" vertex="1">
          <mxGeometry x="959" y="662.5" width="20" height="20" as="geometry" />
        </mxCell>
        <mxCell id="C4tHGR8kcUQV5d1W9FfS-163" value="" style="shape=waypoint;sketch=0;fillStyle=solid;size=6;pointerEvents=1;points=[];fillColor=none;resizable=0;rotatable=0;perimeter=centerPerimeter;snapToPoint=1;" parent="1" vertex="1">
          <mxGeometry x="680" y="607.5" width="20" height="20" as="geometry" />
        </mxCell>
        <mxCell id="C4tHGR8kcUQV5d1W9FfS-164" value="" style="endArrow=none;html=1;rounded=0;exitX=1;exitY=0.5;exitDx=0;exitDy=0;entryX=0;entryY=0.5;entryDx=0;entryDy=0;" parent="1" source="C4tHGR8kcUQV5d1W9FfS-16" target="C4tHGR8kcUQV5d1W9FfS-10" edge="1">
          <mxGeometry width="50" height="50" relative="1" as="geometry">
            <mxPoint x="820" y="560" as="sourcePoint" />
            <mxPoint x="870" y="510" as="targetPoint" />
            <Array as="points">
              <mxPoint x="1065" y="478" />
            </Array>
          </mxGeometry>
        </mxCell>
        <mxCell id="C4tHGR8kcUQV5d1W9FfS-165" value="" style="endArrow=none;html=1;rounded=0;exitX=0.456;exitY=0.731;exitDx=0;exitDy=0;exitPerimeter=0;entryX=0;entryY=0.5;entryDx=0;entryDy=0;" parent="1" source="C4tHGR8kcUQV5d1W9FfS-166" target="C4tHGR8kcUQV5d1W9FfS-131" edge="1">
          <mxGeometry width="50" height="50" relative="1" as="geometry">
            <mxPoint x="1020" y="510" as="sourcePoint" />
            <mxPoint x="870" y="510" as="targetPoint" />
            <Array as="points">
              <mxPoint x="1000" y="510" />
              <mxPoint x="1190" y="510" />
              <mxPoint x="1190" y="690" />
              <mxPoint x="1065" y="690" />
            </Array>
          </mxGeometry>
        </mxCell>
        <mxCell id="C4tHGR8kcUQV5d1W9FfS-166" value="" style="shape=waypoint;sketch=0;fillStyle=solid;size=6;pointerEvents=1;points=[];fillColor=none;resizable=0;rotatable=0;perimeter=centerPerimeter;snapToPoint=1;" parent="1" vertex="1">
          <mxGeometry x="990" y="467.5" width="20" height="20" as="geometry" />
        </mxCell>
        <mxCell id="C4tHGR8kcUQV5d1W9FfS-167" style="edgeStyle=orthogonalEdgeStyle;rounded=0;orthogonalLoop=1;jettySize=auto;html=1;exitX=0;exitY=0.25;exitDx=0;exitDy=0;exitPerimeter=0;entryX=1;entryY=0.5;entryDx=0;entryDy=0;endArrow=none;endFill=0;" parent="1" source="C4tHGR8kcUQV5d1W9FfS-168" target="C4tHGR8kcUQV5d1W9FfS-83" edge="1">
          <mxGeometry relative="1" as="geometry">
            <Array as="points">
              <mxPoint x="728" y="528" />
              <mxPoint x="626" y="528" />
            </Array>
          </mxGeometry>
        </mxCell>
        <mxCell id="C4tHGR8kcUQV5d1W9FfS-168" value="" style="verticalLabelPosition=bottom;shadow=0;dashed=0;align=center;html=1;verticalAlign=top;shape=mxgraph.electrical.logic_gates.logic_gate;operation=or;rotation=-90;" parent="1" vertex="1">
          <mxGeometry x="710" y="485" width="50" height="27.5" as="geometry" />
        </mxCell>
        <mxCell id="C4tHGR8kcUQV5d1W9FfS-169" style="edgeStyle=orthogonalEdgeStyle;rounded=0;orthogonalLoop=1;jettySize=auto;html=1;exitX=0.5;exitY=1;exitDx=0;exitDy=0;entryX=1;entryY=0.5;entryDx=0;entryDy=0;entryPerimeter=0;endArrow=none;endFill=0;" parent="1" source="C4tHGR8kcUQV5d1W9FfS-86" target="C4tHGR8kcUQV5d1W9FfS-168" edge="1">
          <mxGeometry relative="1" as="geometry" />
        </mxCell>
        <mxCell id="C4tHGR8kcUQV5d1W9FfS-170" style="edgeStyle=orthogonalEdgeStyle;rounded=0;orthogonalLoop=1;jettySize=auto;html=1;exitX=0;exitY=0.75;exitDx=0;exitDy=0;exitPerimeter=0;entryX=1;entryY=0.5;entryDx=0;entryDy=0;entryPerimeter=0;endArrow=none;endFill=0;" parent="1" source="C4tHGR8kcUQV5d1W9FfS-168" target="C4tHGR8kcUQV5d1W9FfS-159" edge="1">
          <mxGeometry relative="1" as="geometry">
            <Array as="points">
              <mxPoint x="742" y="528" />
              <mxPoint x="789" y="528" />
            </Array>
          </mxGeometry>
        </mxCell>
        <mxCell id="C4tHGR8kcUQV5d1W9FfS-234" style="edgeStyle=orthogonalEdgeStyle;rounded=0;orthogonalLoop=1;jettySize=auto;html=1;exitX=1;exitY=0.5;exitDx=0;exitDy=0;entryX=0.5;entryY=1;entryDx=0;entryDy=0;endArrow=none;endFill=0;" parent="1" source="C4tHGR8kcUQV5d1W9FfS-210" target="C4tHGR8kcUQV5d1W9FfS-222" edge="1">
          <mxGeometry relative="1" as="geometry" />
        </mxCell>
        <mxCell id="C4tHGR8kcUQV5d1W9FfS-210" value="" style="rounded=0;whiteSpace=wrap;html=1;strokeColor=#000000;" parent="1" vertex="1">
          <mxGeometry x="705" y="825" width="20" height="20" as="geometry" />
        </mxCell>
        <mxCell id="C4tHGR8kcUQV5d1W9FfS-211" value="SW5_9" style="text;html=1;align=center;verticalAlign=middle;whiteSpace=wrap;rounded=0;fontColor=#000000;" parent="1" vertex="1">
          <mxGeometry x="655" y="820" width="60" height="30" as="geometry" />
        </mxCell>
        <mxCell id="C4tHGR8kcUQV5d1W9FfS-212" value="" style="group" parent="1" vertex="1" connectable="0">
          <mxGeometry x="730" y="710" width="80" height="90" as="geometry" />
        </mxCell>
        <mxCell id="C4tHGR8kcUQV5d1W9FfS-213" value="" style="rounded=0;whiteSpace=wrap;html=1;" parent="C4tHGR8kcUQV5d1W9FfS-212" vertex="1">
          <mxGeometry width="66.66666666666666" height="90" as="geometry" />
        </mxCell>
        <mxCell id="C4tHGR8kcUQV5d1W9FfS-214" value="" style="triangle;whiteSpace=wrap;html=1;" parent="C4tHGR8kcUQV5d1W9FfS-212" vertex="1">
          <mxGeometry width="40" height="90" as="geometry" />
        </mxCell>
        <mxCell id="C4tHGR8kcUQV5d1W9FfS-223" style="edgeStyle=orthogonalEdgeStyle;rounded=0;orthogonalLoop=1;jettySize=auto;html=1;exitX=0;exitY=0.5;exitDx=0;exitDy=0;endArrow=none;endFill=0;" parent="C4tHGR8kcUQV5d1W9FfS-212" source="C4tHGR8kcUQV5d1W9FfS-216" edge="1">
          <mxGeometry relative="1" as="geometry">
            <mxPoint x="-30" y="14.71428571428578" as="targetPoint" />
          </mxGeometry>
        </mxCell>
        <mxCell id="C4tHGR8kcUQV5d1W9FfS-216" value="00..00" style="text;html=1;align=center;verticalAlign=middle;whiteSpace=wrap;rounded=0;" parent="C4tHGR8kcUQV5d1W9FfS-212" vertex="1">
          <mxGeometry width="80" height="30" as="geometry" />
        </mxCell>
        <mxCell id="C4tHGR8kcUQV5d1W9FfS-222" value="11..11" style="text;html=1;align=center;verticalAlign=middle;whiteSpace=wrap;rounded=0;" parent="C4tHGR8kcUQV5d1W9FfS-212" vertex="1">
          <mxGeometry y="60" width="80" height="30" as="geometry" />
        </mxCell>
        <mxCell id="C4tHGR8kcUQV5d1W9FfS-224" value="&quot;1100..00&quot;" style="text;html=1;align=center;verticalAlign=middle;resizable=0;points=[];autosize=1;strokeColor=none;fillColor=none;" parent="1" vertex="1">
          <mxGeometry x="630" y="710" width="80" height="30" as="geometry" />
        </mxCell>
        <mxCell id="C4tHGR8kcUQV5d1W9FfS-225" style="edgeStyle=orthogonalEdgeStyle;rounded=0;orthogonalLoop=1;jettySize=auto;html=1;exitX=0;exitY=0.5;exitDx=0;exitDy=0;endArrow=none;endFill=0;" parent="1" edge="1">
          <mxGeometry relative="1" as="geometry">
            <mxPoint x="700" y="784.7142857142858" as="targetPoint" />
            <mxPoint x="730" y="785" as="sourcePoint" />
          </mxGeometry>
        </mxCell>
        <mxCell id="C4tHGR8kcUQV5d1W9FfS-226" value="&quot;0101..10&quot;" style="text;html=1;align=center;verticalAlign=middle;resizable=0;points=[];autosize=1;strokeColor=none;fillColor=none;" parent="1" vertex="1">
          <mxGeometry x="630" y="770" width="80" height="30" as="geometry" />
        </mxCell>
        <mxCell id="C4tHGR8kcUQV5d1W9FfS-231" value=".&lt;div&gt;.&lt;/div&gt;&lt;div&gt;.&lt;/div&gt;" style="text;html=1;align=center;verticalAlign=middle;resizable=0;points=[];autosize=1;strokeColor=none;fillColor=none;" parent="1" vertex="1">
          <mxGeometry x="655" y="720" width="30" height="60" as="geometry" />
        </mxCell>
        <mxCell id="C4tHGR8kcUQV5d1W9FfS-237" value="" style="endArrow=none;html=1;rounded=0;" parent="1" edge="1">
          <mxGeometry width="50" height="50" relative="1" as="geometry">
            <mxPoint x="740" y="840" as="sourcePoint" />
            <mxPoint x="750" y="830" as="targetPoint" />
          </mxGeometry>
        </mxCell>
        <mxCell id="C4tHGR8kcUQV5d1W9FfS-238" value="5" style="text;html=1;align=center;verticalAlign=middle;whiteSpace=wrap;rounded=0;" parent="1" vertex="1">
          <mxGeometry x="740" y="832.5" width="10" height="30" as="geometry" />
        </mxCell>
        <mxCell id="C4tHGR8kcUQV5d1W9FfS-241" value="" style="endArrow=none;html=1;rounded=0;" parent="1" edge="1">
          <mxGeometry width="50" height="50" relative="1" as="geometry">
            <mxPoint x="810" y="760" as="sourcePoint" />
            <mxPoint x="820" y="750" as="targetPoint" />
          </mxGeometry>
        </mxCell>
        <mxCell id="C4tHGR8kcUQV5d1W9FfS-242" value="26" style="text;html=1;align=center;verticalAlign=middle;whiteSpace=wrap;rounded=0;" parent="1" vertex="1">
          <mxGeometry x="810" y="752.5" width="10" height="30" as="geometry" />
        </mxCell>
        <mxCell id="C4tHGR8kcUQV5d1W9FfS-244" style="edgeStyle=orthogonalEdgeStyle;rounded=0;orthogonalLoop=1;jettySize=auto;html=1;exitX=1;exitY=0.5;exitDx=0;exitDy=0;entryX=0.5;entryY=1;entryDx=0;entryDy=0;endArrow=none;endFill=0;" parent="1" source="C4tHGR8kcUQV5d1W9FfS-245" target="C4tHGR8kcUQV5d1W9FfS-252" edge="1">
          <mxGeometry relative="1" as="geometry" />
        </mxCell>
        <mxCell id="C4tHGR8kcUQV5d1W9FfS-245" value="" style="rounded=0;whiteSpace=wrap;html=1;strokeColor=#000000;" parent="1" vertex="1">
          <mxGeometry x="715" y="312" width="20" height="20" as="geometry" />
        </mxCell>
        <mxCell id="C4tHGR8kcUQV5d1W9FfS-246" value="SW0_4" style="text;html=1;align=center;verticalAlign=middle;whiteSpace=wrap;rounded=0;fontColor=#000000;" parent="1" vertex="1">
          <mxGeometry x="665" y="307" width="60" height="30" as="geometry" />
        </mxCell>
        <mxCell id="C4tHGR8kcUQV5d1W9FfS-247" value="" style="group" parent="1" vertex="1" connectable="0">
          <mxGeometry x="740" y="197" width="87" height="90" as="geometry" />
        </mxCell>
        <mxCell id="C4tHGR8kcUQV5d1W9FfS-248" value="" style="rounded=0;whiteSpace=wrap;html=1;" parent="C4tHGR8kcUQV5d1W9FfS-247" vertex="1">
          <mxGeometry width="66.66666666666666" height="90" as="geometry" />
        </mxCell>
        <mxCell id="C4tHGR8kcUQV5d1W9FfS-249" value="" style="triangle;whiteSpace=wrap;html=1;" parent="C4tHGR8kcUQV5d1W9FfS-247" vertex="1">
          <mxGeometry width="40" height="90" as="geometry" />
        </mxCell>
        <mxCell id="C4tHGR8kcUQV5d1W9FfS-250" style="edgeStyle=orthogonalEdgeStyle;rounded=0;orthogonalLoop=1;jettySize=auto;html=1;exitX=0;exitY=0.5;exitDx=0;exitDy=0;endArrow=none;endFill=0;" parent="C4tHGR8kcUQV5d1W9FfS-247" source="C4tHGR8kcUQV5d1W9FfS-251" edge="1">
          <mxGeometry relative="1" as="geometry">
            <mxPoint x="-30" y="14.71428571428578" as="targetPoint" />
          </mxGeometry>
        </mxCell>
        <mxCell id="C4tHGR8kcUQV5d1W9FfS-251" value="00..00" style="text;html=1;align=center;verticalAlign=middle;whiteSpace=wrap;rounded=0;" parent="C4tHGR8kcUQV5d1W9FfS-247" vertex="1">
          <mxGeometry width="80" height="30" as="geometry" />
        </mxCell>
        <mxCell id="C4tHGR8kcUQV5d1W9FfS-252" value="11..11" style="text;html=1;align=center;verticalAlign=middle;whiteSpace=wrap;rounded=0;" parent="C4tHGR8kcUQV5d1W9FfS-247" vertex="1">
          <mxGeometry y="60" width="80" height="30" as="geometry" />
        </mxCell>
        <mxCell id="C4tHGR8kcUQV5d1W9FfS-259" value="" style="endArrow=none;html=1;rounded=0;" parent="C4tHGR8kcUQV5d1W9FfS-247" edge="1">
          <mxGeometry width="50" height="50" relative="1" as="geometry">
            <mxPoint x="77" y="50" as="sourcePoint" />
            <mxPoint x="87" y="40" as="targetPoint" />
          </mxGeometry>
        </mxCell>
        <mxCell id="C4tHGR8kcUQV5d1W9FfS-260" value="26" style="text;html=1;align=center;verticalAlign=middle;whiteSpace=wrap;rounded=0;" parent="C4tHGR8kcUQV5d1W9FfS-247" vertex="1">
          <mxGeometry x="77" y="42.5" width="10" height="30" as="geometry" />
        </mxCell>
        <mxCell id="C4tHGR8kcUQV5d1W9FfS-253" value="&quot;1100..00&quot;" style="text;html=1;align=center;verticalAlign=middle;resizable=0;points=[];autosize=1;strokeColor=none;fillColor=none;" parent="1" vertex="1">
          <mxGeometry x="640" y="197" width="80" height="30" as="geometry" />
        </mxCell>
        <mxCell id="C4tHGR8kcUQV5d1W9FfS-254" style="edgeStyle=orthogonalEdgeStyle;rounded=0;orthogonalLoop=1;jettySize=auto;html=1;exitX=0;exitY=0.5;exitDx=0;exitDy=0;endArrow=none;endFill=0;" parent="1" edge="1">
          <mxGeometry relative="1" as="geometry">
            <mxPoint x="710" y="271.7142857142858" as="targetPoint" />
            <mxPoint x="740" y="272" as="sourcePoint" />
          </mxGeometry>
        </mxCell>
        <mxCell id="C4tHGR8kcUQV5d1W9FfS-255" value="&quot;0101..10&quot;" style="text;html=1;align=center;verticalAlign=middle;resizable=0;points=[];autosize=1;strokeColor=none;fillColor=none;" parent="1" vertex="1">
          <mxGeometry x="640" y="257" width="80" height="30" as="geometry" />
        </mxCell>
        <mxCell id="C4tHGR8kcUQV5d1W9FfS-256" value=".&lt;div&gt;.&lt;/div&gt;&lt;div&gt;.&lt;/div&gt;" style="text;html=1;align=center;verticalAlign=middle;resizable=0;points=[];autosize=1;strokeColor=none;fillColor=none;" parent="1" vertex="1">
          <mxGeometry x="665" y="207" width="30" height="60" as="geometry" />
        </mxCell>
        <mxCell id="C4tHGR8kcUQV5d1W9FfS-257" value="" style="endArrow=none;html=1;rounded=0;" parent="1" edge="1">
          <mxGeometry width="50" height="50" relative="1" as="geometry">
            <mxPoint x="750" y="327" as="sourcePoint" />
            <mxPoint x="760" y="317" as="targetPoint" />
          </mxGeometry>
        </mxCell>
        <mxCell id="C4tHGR8kcUQV5d1W9FfS-258" value="5" style="text;html=1;align=center;verticalAlign=middle;whiteSpace=wrap;rounded=0;" parent="1" vertex="1">
          <mxGeometry x="750" y="319.5" width="10" height="30" as="geometry" />
        </mxCell>
        <mxCell id="69FdwStmXouV-Ci_8BOa-2" value="" style="endArrow=none;html=1;rounded=0;entryX=1;entryY=0.5;entryDx=0;entryDy=0;" edge="1" parent="1" source="69FdwStmXouV-Ci_8BOa-3" target="C4tHGR8kcUQV5d1W9FfS-124">
          <mxGeometry width="50" height="50" relative="1" as="geometry">
            <mxPoint x="1040" y="350" as="sourcePoint" />
            <mxPoint x="1150" y="640" as="targetPoint" />
            <Array as="points">
              <mxPoint x="1040" y="320" />
              <mxPoint x="1120" y="320" />
              <mxPoint x="1120" y="490" />
              <mxPoint x="1065" y="490" />
            </Array>
          </mxGeometry>
        </mxCell>
        <mxCell id="69FdwStmXouV-Ci_8BOa-3" value="" style="shape=waypoint;sketch=0;fillStyle=solid;size=6;pointerEvents=1;points=[];fillColor=none;resizable=0;rotatable=0;perimeter=centerPerimeter;snapToPoint=1;" vertex="1" parent="1">
          <mxGeometry x="1030" y="340" width="20" height="20" as="geometry" />
        </mxCell>
      </root>
    </mxGraphModel>
  </diagram>
</mxfile>
